<?xml version="1.0" standalone="no"?>
<!DOCTYPE svg PUBLIC "-//W3C//DTD SVG 20010904//EN"
 "http://www.w3.org/TR/2001/REC-SVG-20010904/DTD/svg10.dtd">
<svg version="1.0" xmlns="http://www.w3.org/2000/svg"
 width="700.000000pt" height="700.000000pt" viewBox="0 0 700.000000 700.000000"
 preserveAspectRatio="xMidYMid meet">
<metadata>
Created by potrace 1.11, written by Peter Selinger 2001-2013
</metadata>
<g transform="translate(0.000000,700.000000) scale(0.100000,-0.100000)"
fill="#000000" stroke="none">
<path d="M3270 6989 c-604 -38 -1209 -243 -1713 -581 -1184 -794 -1766 -2213
-1482 -3613 276 -1361 1359 -2444 2720 -2720 754 -153 1526 -59 2211 270 1455
697 2240 2277 1919 3860 -276 1361 -1359 2444 -2720 2720 -314 64 -614 84
-935 64z m1041 -1437 c96 -50 143 -167 106 -267 -8 -22 -333 -872 -722 -1890
-467 -1223 -716 -1862 -734 -1885 -54 -68 -150 -102 -231 -80 -24 6 -61 29
-85 51 -54 50 -79 111 -73 176 3 31 265 729 724 1928 780 2040 735 1934 829
1976 59 27 123 24 186 -9z m-1853 -984 c85 -40 134 -147 111 -241 -21 -88 -57
-114 -656 -483 -304 -186 -553 -341 -553 -344 0 -3 44 -32 98 -64 475 -288
1032 -637 1059 -663 47 -48 69 -128 53 -195 -15 -59 -64 -119 -121 -149 -49
-25 -131 -25 -184 0 -22 10 -296 177 -610 370 -387 238 -582 364 -607 392
-131 144 -158 352 -69 526 48 96 92 127 681 489 311 191 579 354 595 363 66
33 130 33 203 -1z m2282 3 c19 -10 289 -174 600 -365 589 -362 633 -393 681
-489 89 -174 62 -382 -69 -526 -25 -28 -220 -154 -607 -392 -313 -193 -588
-360 -610 -370 -53 -25 -135 -25 -184 0 -133 68 -168 243 -68 344 27 26 385
251 1057 662 47 29 85 58 85 65 0 7 -247 166 -550 352 -302 186 -567 356 -588
376 -72 70 -82 178 -26 269 55 88 179 121 279 74z"/>
</g>
</svg>
